<svg width="20" height="21" viewBox="0 0 20 21" fill="none" xmlns="http://www.w3.org/2000/svg">
<g id="Vertical container">
<path id="Vector" d="M20 10.6666C20 5.14377 15.5229 0.666626 10 0.666626C4.47715 0.666626 0 5.14377 0 10.6666C0 15.6578 3.65684 19.7949 8.4375 20.5451V13.5573H5.89844V10.6666H8.4375V8.4635C8.4375 5.95725 9.93047 4.57288 12.2146 4.57288C13.3084 4.57288 14.4531 4.76819 14.4531 4.76819V7.22913H13.1922C11.95 7.22913 11.5625 8.00002 11.5625 8.79163V10.6666H14.3359L13.8926 13.5573H11.5625V20.5451C16.3432 19.7949 20 15.6578 20 10.6666Z" fill="#272D37"/>
<path id="Vector_2" d="M13.8926 13.5573L14.3359 10.6666H11.5625V8.79163C11.5625 8.00081 11.95 7.22913 13.1922 7.22913H14.4531V4.76819C14.4531 4.76819 13.3088 4.57288 12.2146 4.57288C9.93047 4.57288 8.4375 5.95725 8.4375 8.4635V10.6666H5.89844V13.5573H8.4375V20.5451C9.47287 20.7071 10.5271 20.7071 11.5625 20.5451V13.5573H13.8926Z" fill="white"/>
</g>
</svg>
