<svg width="25" height="24" viewBox="0 0 25 24" fill="none" xmlns="http://www.w3.org/2000/svg">
<g id="Logo">
<path id="Vector" d="M24.2628 12.2758C24.2628 11.46 24.1967 10.6399 24.0556 9.8374H12.7368V14.4584H19.2185C18.9496 15.9487 18.0853 17.2671 16.8199 18.1049V21.1032H20.6869C22.9577 19.0132 24.2628 15.9267 24.2628 12.2758Z" fill="#272D37"/>
<path id="Vector_2" d="M12.7374 24.0001C15.9739 24.0001 18.7032 22.9374 20.6919 21.1032L16.8249 18.1048C15.749 18.8368 14.3601 19.2512 12.7418 19.2512C9.6112 19.2512 6.95678 17.1392 6.00436 14.2996H2.01392V17.3905C4.05103 21.4427 8.20021 24.0001 12.7374 24.0001Z" fill="#272D37"/>
<path id="Vector_3" d="M5.99984 14.3C5.49718 12.8096 5.49718 11.1958 5.99984 9.70544V6.6145H2.01381C0.311804 10.0053 0.311804 14.0001 2.01381 17.3909L5.99984 14.3Z" fill="#272D37"/>
<path id="Vector_4" d="M12.7374 4.74942C14.4482 4.72296 16.1017 5.36672 17.3408 6.54842L20.7668 3.12237C18.5974 1.08526 15.7181 -0.0347101 12.7374 0.000564525C8.20021 0.000564525 4.05103 2.55798 2.01392 6.61456L5.99995 9.70551C6.94796 6.86149 9.60679 4.74942 12.7374 4.74942Z" fill="#272D37"/>
</g>
</svg>
