<svg width="20" height="21" viewBox="0 0 20 21" fill="none" xmlns="http://www.w3.org/2000/svg">
<g id="Vertical container">
<path id="Oval" d="M10 20.6666C15.5228 20.6666 20 16.1895 20 10.6666C20 5.14378 15.5228 0.666626 10 0.666626C4.47715 0.666626 0 5.14378 0 10.6666C0 16.1895 4.47715 20.6666 10 20.6666Z" fill="#272D37"/>
<path id="Path 3" fill-rule="evenodd" clip-rule="evenodd" d="M4.5266 10.5611C7.4418 9.29098 9.38573 8.45364 10.3584 8.04909C13.1355 6.89399 13.7125 6.69334 14.0887 6.68672C14.1714 6.68526 14.3563 6.70576 14.4762 6.80298C14.5773 6.88507 14.6052 6.99596 14.6185 7.07379C14.6318 7.15162 14.6484 7.32892 14.6352 7.46746C14.4847 9.04869 13.8335 12.8859 13.5022 14.6569C13.3621 15.4063 13.0861 15.6576 12.8188 15.6822C12.2381 15.7356 11.7972 15.2984 11.2347 14.9297C10.3546 14.3528 9.85735 13.9936 9.00303 13.4306C8.01572 12.78 8.65575 12.4224 9.21842 11.838C9.36567 11.6851 11.9243 9.35777 11.9739 9.14665C11.98 9.12025 11.9858 9.02182 11.9273 8.96985C11.8689 8.91788 11.7826 8.93565 11.7203 8.94979C11.632 8.96982 10.226 9.89915 7.50222 11.7378C7.10313 12.0118 6.74164 12.1453 6.41776 12.1383C6.06071 12.1306 5.37388 11.9365 4.8633 11.7705C4.23705 11.5669 3.73932 11.4593 3.78266 11.1136C3.80524 10.9335 4.05321 10.7493 4.5266 10.5611Z" fill="white"/>
</g>
</svg>
