<svg width="129" height="32" viewBox="0 0 129 32" fill="none" xmlns="http://www.w3.org/2000/svg">
<g id="Company Logo">
<g id="Logo">
<path d="M80.8201 8.70399H76.5961C76.5001 8.70399 76.404 8.80001 76.404 8.89601V11.344C76.404 11.44 76.5001 11.536 76.5961 11.536H80.8201C80.9161 11.536 81.0121 11.44 81.0121 11.344V8.89601C81.0601 8.80001 80.9641 8.70399 80.8201 8.70399ZM80.7721 12.352H72.6121C72.5161 12.352 72.3721 12.448 72.3241 12.544L71.2681 16.528L71.2201 16.72L69.9721 12.448C69.9241 12.352 69.8281 12.256 69.6841 12.256H66.5161C66.4201 12.256 66.2761 12.352 66.2281 12.448L65.0281 16.432L64.9801 16.624L64.9321 16.528L64.4521 14.56L63.9241 12.592C63.8761 12.496 63.7801 12.4 63.6361 12.4H57.2521V8.94399C57.2521 8.84799 57.1081 8.704 56.9641 8.752L52.9321 10C52.7881 10.048 52.7401 10.096 52.7401 10.192V12.352H51.6841C51.5881 12.352 51.4921 12.448 51.4921 12.544V15.616C51.4921 15.712 51.5881 15.808 51.6841 15.808H52.7401V19.552C52.7401 22.192 54.1801 23.44 56.8201 23.44C57.9241 23.44 58.9801 23.2 59.7001 22.816V19.648C59.7001 19.504 59.5561 19.456 59.4601 19.456C59.0281 19.648 58.6921 19.696 58.3081 19.696C57.5881 19.696 57.2041 19.408 57.2041 18.592V15.856H59.5081C59.6041 15.856 59.7001 15.76 59.7001 15.664V13.072L62.7241 23.104C62.7721 23.2 62.8681 23.296 63.0121 23.296H66.3721C66.4681 23.296 66.6121 23.2 66.6601 23.104L68.1001 18.64L68.8201 20.944L69.4921 23.056C69.5401 23.152 69.6361 23.248 69.7801 23.248H73.1401C73.2361 23.248 73.3801 23.152 73.4281 23.056L76.5001 12.976V23.056C76.5001 23.152 76.5961 23.248 76.6921 23.248H80.7721C80.8681 23.248 80.9641 23.152 80.9641 23.056V12.592C80.9641 12.448 80.8681 12.352 80.7721 12.352ZM86.1481 8.70399H82.0681C81.972 8.70399 81.8761 8.80001 81.8761 8.89601V23.056C81.8761 23.152 81.972 23.248 82.0681 23.248H86.1481C86.2441 23.248 86.3401 23.152 86.3401 23.056V8.89601C86.3401 8.80001 86.2441 8.70399 86.1481 8.70399ZM91.5721 8.70399H87.3481C87.2521 8.70399 87.1561 8.80001 87.1561 8.89601V11.344C87.1561 11.44 87.2521 11.536 87.3481 11.536H91.5721C91.6681 11.536 91.7641 11.44 91.7641 11.344V8.89601C91.812 8.80001 91.7161 8.70399 91.5721 8.70399ZM91.5241 12.352H87.444C87.348 12.352 87.2521 12.448 87.2521 12.544V23.056C87.2521 23.152 87.348 23.248 87.444 23.248H91.5241C91.62 23.248 91.7161 23.152 91.7161 23.056V12.592C91.7161 12.448 91.62 12.352 91.5241 12.352ZM98.2921 12.112C94.6921 12.112 92.1481 14.752 92.1481 17.824V17.872C92.1481 20.944 94.6921 23.536 98.244 23.536C101.844 23.536 104.388 20.896 104.388 17.824V17.776C104.388 14.704 101.844 12.112 98.2921 12.112ZM100.02 17.824C100.02 18.88 99.3001 19.696 98.2921 19.696C97.284 19.696 96.5161 18.832 96.5161 17.776V17.728C96.5161 16.672 97.2361 15.856 98.244 15.856C99.2521 15.856 100.02 16.72 100.02 17.824ZM36.6121 4C29.9881 4 24.6121 9.376 24.6121 16C24.6121 22.624 29.9881 28 36.6121 28C43.2361 28 48.6121 22.624 48.6121 16C48.6121 9.376 43.2361 4 36.6121 4ZM36.6121 24.832C31.7161 24.832 27.7801 20.896 27.7801 16C27.7801 11.104 31.7161 7.168 36.6121 7.168C41.5081 7.168 45.4441 11.104 45.4441 16C45.4441 20.896 41.5081 24.832 36.6121 24.832Z" fill="white"/>
<path d="M39.5881 15.52C40.9666 15.52 42.0841 14.4025 42.0841 13.024C42.0841 11.6455 40.9666 10.528 39.5881 10.528C38.2096 10.528 37.0921 11.6455 37.0921 13.024C37.0921 14.4025 38.2096 15.52 39.5881 15.52Z" fill="white"/>
<path d="M39.5881 21.472C40.9666 21.472 42.0841 20.3545 42.0841 18.976C42.0841 17.5975 40.9666 16.48 39.5881 16.48C38.2096 16.48 37.0921 17.5975 37.0921 18.976C37.0921 20.3545 38.2096 21.472 39.5881 21.472Z" fill="white"/>
<path d="M33.6361 21.472C35.0146 21.472 36.1321 20.3545 36.1321 18.976C36.1321 17.5975 35.0146 16.48 33.6361 16.48C32.2576 16.48 31.1401 17.5975 31.1401 18.976C31.1401 20.3545 32.2576 21.472 33.6361 21.472Z" fill="white"/>
<path d="M33.6361 15.52C35.0146 15.52 36.1321 14.4025 36.1321 13.024C36.1321 11.6455 35.0146 10.528 33.6361 10.528C32.2576 10.528 31.1401 11.6455 31.1401 13.024C31.1401 14.4025 32.2576 15.52 33.6361 15.52Z" fill="white"/>
</g>
</g>
</svg>
