<svg width="20" height="21" viewBox="0 0 20 21" fill="none" xmlns="http://www.w3.org/2000/svg">
<g id="Social platforms logo">
<path id="Logo" d="M6.2896 18.7921C13.8368 18.7921 17.9648 12.5393 17.9648 7.11692C17.9648 6.93932 17.9648 6.76252 17.9528 6.58652C18.7559 6.00565 19.4491 5.28642 20 4.46252C19.2512 4.79452 18.4567 5.01215 17.6432 5.10812C18.4998 4.59536 19.141 3.78877 19.4472 2.83852C18.6417 3.31652 17.7605 3.65337 16.8416 3.83452C16.2229 3.17666 15.4047 2.74105 14.5135 2.59509C13.6223 2.44912 12.7078 2.60095 11.9116 3.02706C11.1154 3.45318 10.4819 4.12983 10.109 4.95231C9.73605 5.77479 9.64462 6.69724 9.8488 7.57692C8.21741 7.49508 6.62146 7.07111 5.16455 6.33252C3.70763 5.59393 2.4223 4.55723 1.392 3.28972C0.867274 4.19305 0.70656 5.26241 0.942583 6.28007C1.17861 7.29773 1.79362 8.18718 2.6624 8.76732C2.00936 8.74818 1.37054 8.57201 0.8 8.25372V8.30572C0.800259 9.25309 1.12821 10.1712 1.72823 10.9044C2.32824 11.6375 3.16338 12.1405 4.092 12.3281C3.4879 12.4929 2.85406 12.517 2.2392 12.3985C2.50151 13.2138 3.01202 13.9267 3.69937 14.4376C4.38671 14.9486 5.21652 15.2319 6.0728 15.2481C5.22203 15.9168 4.24776 16.4113 3.20573 16.7031C2.16369 16.995 1.07435 17.0785 0 16.9489C1.87653 18.1531 4.05994 18.7918 6.2896 18.7889" fill="#272D37"/>
</g>
</svg>
